<svg aria-hidden="true" style="position: absolute; width: 0; height: 0; overflow: hidden;" version="1.1" xmlns="http://www.w3.org/2000/svg" xmlns:xlink="http://www.w3.org/1999/xlink">
<defs>
<symbol id="icon-arrow-back" viewBox="0 0 32 32">
<path d="M9.46 17.136l7.336 7.335c0.227 0.227 0.341 0.494 0.344 0.8s-0.109 0.574-0.336 0.803c-0.227 0.229-0.494 0.343-0.802 0.34s-0.577-0.117-0.805-0.344l-9.267-9.267c-0.121-0.123-0.21-0.25-0.265-0.383s-0.083-0.273-0.083-0.422 0.028-0.289 0.083-0.421c0.055-0.132 0.143-0.259 0.265-0.382l9.275-9.275c0.234-0.226 0.503-0.34 0.806-0.34s0.567 0.113 0.794 0.34c0.226 0.232 0.34 0.5 0.34 0.803s-0.113 0.569-0.34 0.796l-7.344 7.343h16.27c0.325 0 0.597 0.108 0.816 0.323s0.328 0.486 0.328 0.812-0.109 0.597-0.328 0.812c-0.219 0.215-0.491 0.323-0.816 0.323h-16.27z"></path>
<path d="M26.874 16c0 0.326-0.109 0.597-0.327 0.813l-0.085 0.075c-0.174 0.141-0.378 0.222-0.612 0.242l-0.12 0.005h-16.271l7.336 7.336c0.227 0.227 0.341 0.493 0.344 0.799s-0.109 0.575-0.336 0.803c-0.227 0.229-0.494 0.342-0.802 0.34l-0.113-0.006c-0.224-0.023-0.425-0.109-0.604-0.258l-0.087-0.079-9.267-9.267c-0.121-0.123-0.209-0.25-0.264-0.383s-0.083-0.273-0.083-0.422c0-0.111 0.016-0.218 0.047-0.32l0.036-0.1c0.055-0.132 0.143-0.259 0.264-0.381l9.275-9.275c0.235-0.226 0.503-0.34 0.806-0.34s0.566 0.114 0.793 0.34c0.227 0.232 0.34 0.5 0.34 0.803l-0.005 0.112c-0.025 0.257-0.137 0.485-0.335 0.684l-7.344 7.344h16.271c0.325 0 0.598 0.107 0.816 0.323s0.327 0.487 0.327 0.813z"></path>
</symbol>
<symbol id="icon-arrow-forward" viewBox="0 0 32 32">
<path d="M22.54 17.136h-16.27c-0.326 0-0.597-0.108-0.812-0.323s-0.323-0.486-0.323-0.812 0.108-0.597 0.323-0.812c0.215-0.215 0.486-0.323 0.812-0.323h16.27l-7.336-7.335c-0.227-0.227-0.341-0.494-0.344-0.801s0.109-0.575 0.336-0.803c0.227-0.229 0.495-0.342 0.803-0.339s0.577 0.117 0.805 0.344l9.267 9.267c0.121 0.123 0.21 0.25 0.265 0.383s0.083 0.273 0.083 0.422-0.028 0.289-0.083 0.421c-0.055 0.132-0.143 0.259-0.265 0.382l-9.275 9.267c-0.234 0.232-0.503 0.348-0.806 0.348s-0.567-0.117-0.794-0.35c-0.226-0.227-0.34-0.492-0.34-0.795s0.113-0.568 0.34-0.794l7.344-7.343z"></path>
<path d="M15.999 5.586c0.308 0.003 0.576 0.117 0.805 0.344l9.267 9.267c0.121 0.123 0.209 0.25 0.264 0.383s0.083 0.273 0.083 0.422l-0.005 0.109c-0.010 0.109-0.037 0.212-0.078 0.311-0.055 0.132-0.143 0.259-0.264 0.382l-9.275 9.267c-0.234 0.232-0.503 0.348-0.806 0.348s-0.566-0.117-0.793-0.35c-0.226-0.227-0.34-0.491-0.34-0.794s0.113-0.568 0.34-0.794l7.344-7.344h-16.271c-0.285-0-0.529-0.082-0.729-0.247l-0.083-0.075c-0.215-0.216-0.323-0.487-0.323-0.813s0.107-0.597 0.323-0.813c0.188-0.189 0.42-0.294 0.693-0.318l0.12-0.005h16.271l-7.336-7.336c-0.198-0.198-0.312-0.427-0.339-0.688l-0.005-0.113c-0.003-0.308 0.108-0.576 0.335-0.803s0.495-0.341 0.803-0.339z"></path>
</symbol>
<symbol id="icon-bookmark" viewBox="0 0 32 32">
<path d="M16 24.223l-6.358 2.72c-0.757 0.326-1.475 0.265-2.155-0.184s-1.020-1.084-1.020-1.905v-18.95c0-0.616 0.225-1.149 0.676-1.601s0.982-0.678 1.595-0.678h14.523c0.616 0 1.149 0.226 1.601 0.678s0.678 0.985 0.678 1.601v18.95c0 0.821-0.341 1.456-1.024 1.905s-1.402 0.51-2.159 0.184l-6.358-2.72zM16 21.794l7.262 3.061v-18.95h-14.523v18.95l7.262-3.061zM16 5.905v0z"></path>
</symbol>
<symbol id="icon-chevron-left" viewBox="0 0 32 32">
<path d="M13.725 15.967l5.804 5.804c0.227 0.227 0.335 0.492 0.323 0.796s-0.13 0.569-0.357 0.796-0.497 0.34-0.812 0.34c-0.315 0-0.586-0.113-0.812-0.34l-6.592-6.592c-0.122-0.122-0.21-0.249-0.265-0.381s-0.083-0.273-0.083-0.422 0.028-0.29 0.083-0.422c0.055-0.132 0.144-0.259 0.265-0.381l6.625-6.625c0.227-0.227 0.497-0.34 0.812-0.34s0.586 0.113 0.812 0.34c0.227 0.227 0.34 0.497 0.34 0.812s-0.113 0.586-0.34 0.812l-5.804 5.804z"></path>
<path d="M18.716 8.198c0.315 0 0.586 0.113 0.813 0.34s0.34 0.498 0.34 0.813l-0.005 0.116c-0.025 0.266-0.136 0.498-0.335 0.697l-5.803 5.805 5.803 5.803c0.227 0.227 0.335 0.492 0.324 0.796l-0.009 0.112c-0.033 0.257-0.149 0.485-0.348 0.684l-0.087 0.081c-0.208 0.173-0.45 0.26-0.725 0.26l-0.116-0.005c-0.228-0.021-0.431-0.107-0.609-0.255l-0.087-0.081-6.592-6.591c-0.122-0.122-0.211-0.249-0.266-0.381s-0.082-0.273-0.082-0.422c0-0.149 0.027-0.291 0.082-0.423s0.144-0.26 0.266-0.381l6.626-6.625c0.227-0.226 0.497-0.34 0.811-0.34z"></path>
</symbol>
<symbol id="icon-chevron-right" viewBox="0 0 32 32">
<path d="M17.475 15.966l-5.804-5.804c-0.227-0.227-0.334-0.492-0.323-0.796s0.13-0.569 0.357-0.796c0.227-0.227 0.497-0.34 0.812-0.34s0.586 0.113 0.812 0.34l6.592 6.592c0.122 0.122 0.21 0.249 0.265 0.381s0.083 0.273 0.083 0.422-0.027 0.29-0.083 0.422c-0.055 0.132-0.143 0.259-0.265 0.381l-6.625 6.625c-0.227 0.227-0.492 0.334-0.796 0.323s-0.569-0.13-0.796-0.357-0.34-0.497-0.34-0.812c0-0.315 0.113-0.586 0.34-0.812l5.771-5.771z"></path>
<path d="M12.516 8.23c0.315 0 0.586 0.113 0.813 0.34l6.592 6.593c0.122 0.122 0.211 0.249 0.266 0.381s0.082 0.273 0.082 0.422l-0.005 0.111c-0.010 0.109-0.036 0.212-0.077 0.311l-0.048 0.099c-0.054 0.097-0.126 0.191-0.217 0.283l-6.625 6.625-0.087 0.079c-0.207 0.172-0.443 0.254-0.708 0.245l-0.113-0.009c-0.22-0.029-0.419-0.118-0.596-0.268l-0.086-0.079c-0.227-0.227-0.341-0.498-0.341-0.813s0.114-0.586 0.341-0.813l5.771-5.771-5.805-5.805c-0.227-0.227-0.334-0.492-0.323-0.796s0.13-0.569 0.357-0.796c0.226-0.226 0.497-0.34 0.811-0.34z"></path>
</symbol>
<symbol id="icon-close" viewBox="0 0 32 32">
<path d="M16 17.867l-6.533 6.533c-0.244 0.244-0.556 0.367-0.933 0.367s-0.689-0.122-0.933-0.367c-0.244-0.244-0.367-0.556-0.367-0.933s0.122-0.689 0.367-0.933l6.533-6.533-6.533-6.533c-0.244-0.244-0.367-0.556-0.367-0.933s0.122-0.689 0.367-0.933c0.244-0.244 0.556-0.367 0.933-0.367s0.689 0.122 0.933 0.367l6.533 6.533 6.533-6.533c0.244-0.244 0.556-0.367 0.933-0.367s0.689 0.122 0.933 0.367c0.244 0.244 0.367 0.556 0.367 0.933s-0.122 0.689-0.367 0.933l-6.533 6.533 6.533 6.533c0.244 0.244 0.367 0.556 0.367 0.933s-0.122 0.689-0.367 0.933c-0.244 0.244-0.556 0.367-0.933 0.367s-0.689-0.122-0.933-0.367l-6.533-6.533z"></path>
<path d="M23.328 24.761c-0.316-0.027-0.582-0.147-0.796-0.361l-6.533-6.534-6.534 6.534c-0.244 0.244-0.556 0.367-0.934 0.367l-0.138-0.007c-0.271-0.023-0.505-0.114-0.701-0.275l-0.094-0.086c-0.244-0.244-0.367-0.556-0.367-0.934s0.123-0.689 0.367-0.934l6.533-6.533-6.533-6.534c-0.244-0.244-0.367-0.556-0.367-0.934s0.123-0.688 0.367-0.932 0.555-0.367 0.932-0.367c0.378 0 0.689 0.123 0.934 0.367l6.534 6.533 6.533-6.533c0.244-0.244 0.556-0.367 0.934-0.367s0.689 0.123 0.934 0.367c0.244 0.244 0.367 0.555 0.367 0.932l-0.007 0.139c-0.027 0.316-0.147 0.58-0.361 0.794l-6.534 6.534 6.534 6.533c0.244 0.244 0.367 0.556 0.367 0.934l-0.007 0.139c-0.027 0.316-0.147 0.581-0.361 0.794-0.244 0.244-0.556 0.367-0.934 0.367l-0.138-0.007z"></path>
</symbol>
<symbol id="icon-communication" viewBox="0 0 32 32">
<path d="M1.15 21.271v-0.569c0-1.243 0.618-2.059 1.853-2.45s2.329-0.586 3.283-0.586c0.954 0 2.048 0.195 3.283 0.584s1.853 1.207 1.853 2.451v0.569h-10.271zM6.284 15.881c-0.725 0-1.345-0.259-1.861-0.776s-0.773-1.14-0.773-1.866 0.258-1.348 0.775-1.863c0.516-0.515 1.137-0.773 1.862-0.773s1.345 0.259 1.861 0.776c0.516 0.517 0.773 1.139 0.773 1.864s-0.258 1.346-0.775 1.864c-0.516 0.517-1.137 0.776-1.862 0.776zM13.244 17.88c-0.255 0-0.466-0.080-0.632-0.24s-0.249-0.365-0.249-0.616c0-0.125 0.083-0.342 0.249-0.65 0.172-0.244 0.309-0.5 0.409-0.767s0.15-0.545 0.15-0.834c0-0.289-0.050-0.575-0.15-0.858s-0.237-0.532-0.411-0.749c-0.072-0.097-0.131-0.198-0.177-0.303s-0.069-0.216-0.069-0.333c0-0.254 0.083-0.464 0.25-0.629s0.377-0.248 0.631-0.248c0.112 0 0.228 0.018 0.346 0.054s0.211 0.098 0.278 0.187c0.388 0.405 0.673 0.856 0.853 1.353s0.271 1.006 0.271 1.526c0 0.516-0.097 1.035-0.291 1.556s-0.48 0.967-0.856 1.34c-0.089 0.089-0.182 0.146-0.278 0.171s-0.204 0.038-0.322 0.038zM15.783 20.415c-0.26 0-0.471-0.084-0.633-0.251s-0.243-0.379-0.243-0.635c0-0.118 0.022-0.228 0.065-0.33s0.101-0.201 0.173-0.296c0.546-0.639 0.951-1.308 1.215-2.005s0.395-1.405 0.395-2.125-0.132-1.434-0.395-2.144c-0.264-0.71-0.669-1.376-1.216-1.998-0.071-0.095-0.129-0.192-0.172-0.291s-0.065-0.211-0.065-0.335c0-0.258 0.083-0.469 0.25-0.633s0.377-0.246 0.632-0.246c0.13 0 0.252 0.030 0.363 0.091s0.214 0.141 0.308 0.242c0.695 0.8 1.215 1.649 1.558 2.547s0.516 1.819 0.516 2.764c0 0.945-0.172 1.866-0.516 2.764s-0.863 1.747-1.558 2.547c-0.087 0.111-0.187 0.194-0.299 0.25s-0.238 0.083-0.378 0.083zM20.579 21.271v-0.569c0-1.245 0.617-2.062 1.853-2.451s2.329-0.584 3.283-0.584c0.954 0 2.048 0.195 3.283 0.586s1.853 1.207 1.853 2.45v0.569h-10.271zM25.713 15.881c-0.725 0-1.345-0.259-1.861-0.776s-0.773-1.14-0.773-1.866 0.258-1.348 0.775-1.863c0.516-0.515 1.137-0.773 1.862-0.773s1.345 0.259 1.861 0.776c0.516 0.517 0.773 1.139 0.773 1.864s-0.258 1.346-0.775 1.864c-0.516 0.517-1.137 0.776-1.862 0.776z"></path>
</symbol>
<symbol id="icon-edit" viewBox="0 0 32 32">
<path d="M6.064 25.928h1.475l15.327-15.294-1.459-1.467-15.343 15.302v1.459zM4.936 28.199c-0.326 0-0.597-0.108-0.812-0.323s-0.323-0.486-0.323-0.812v-2.561c0-0.304 0.062-0.601 0.187-0.891s0.289-0.537 0.493-0.742l18.471-18.446c0.183-0.188 0.404-0.335 0.661-0.441s0.525-0.158 0.803-0.158c0.255 0 0.51 0.053 0.765 0.158s0.491 0.25 0.707 0.433l1.73 1.706c0.205 0.216 0.355 0.453 0.449 0.711s0.141 0.517 0.141 0.777c0 0.26-0.053 0.524-0.158 0.79s-0.25 0.494-0.433 0.682l-18.471 18.438c-0.21 0.204-0.458 0.369-0.746 0.493s-0.583 0.187-0.887 0.187h-2.577zM22.14 9.893l-0.733-0.725 1.459 1.467-0.725-0.741z"></path>
</symbol>
<symbol id="icon-facebook" viewBox="0 0 32 32">
<path d="M29.333 16.405c0-7.409-5.969-13.415-13.333-13.415s-13.333 6.006-13.333 13.415c0 6.696 4.876 12.245 11.25 13.252v-9.374h-3.385v-3.878h3.385v-2.955c0-3.362 1.991-5.219 5.036-5.219 1.459 0 2.985 0.262 2.985 0.262v3.301h-1.681c-1.656 0-2.173 1.034-2.173 2.095v2.516h3.698l-0.591 3.878h-3.107v9.374c6.374-1.006 11.25-6.556 11.25-13.252z"></path>
</symbol>
<symbol id="icon-filter-alt" viewBox="0 0 32 32">
<path d="M14.666 26.866c-0.431 0-0.794-0.148-1.089-0.443s-0.443-0.658-0.443-1.089v-7.928l-7.919-10.119c-0.364-0.447-0.418-0.919-0.161-1.415s0.661-0.745 1.213-0.745h19.467c0.552 0 0.956 0.248 1.213 0.745s0.205 0.968-0.153 1.415l-7.919 10.119v7.992c0 0.42-0.141 0.77-0.423 1.050s-0.633 0.419-1.054 0.419h-2.73zM16 17.347l7.849-9.942h-15.689l7.841 9.942z"></path>
</symbol>
<symbol id="icon-Instagram" viewBox="0 0 32 32">
<path d="M16.007 6.488c3.206 0 3.585 0.014 4.846 0.071 1.172 0.052 1.804 0.248 2.227 0.412 0.558 0.216 0.961 0.478 1.378 0.895 0.422 0.422 0.679 0.82 0.9 1.378 0.164 0.422 0.361 1.059 0.412 2.226 0.056 1.266 0.071 1.645 0.071 4.847s-0.014 3.585-0.071 4.847c-0.052 1.172-0.248 1.804-0.412 2.227-0.216 0.558-0.478 0.961-0.895 1.377-0.422 0.422-0.82 0.679-1.377 0.9-0.422 0.164-1.060 0.361-2.227 0.412-1.266 0.056-1.645 0.071-4.847 0.071s-3.585-0.014-4.847-0.071c-1.172-0.052-1.804-0.248-2.226-0.412-0.558-0.216-0.961-0.478-1.378-0.895-0.422-0.422-0.679-0.82-0.9-1.378-0.164-0.422-0.361-1.060-0.412-2.226-0.056-1.266-0.071-1.645-0.071-4.847s0.014-3.585 0.071-4.847c0.052-1.172 0.248-1.804 0.412-2.226 0.216-0.558 0.478-0.961 0.895-1.378 0.422-0.422 0.82-0.679 1.378-0.9 0.422-0.164 1.059-0.361 2.226-0.412 1.261-0.056 1.641-0.071 4.847-0.071h0.001zM16.007 4.328c-3.258 0-3.665 0.014-4.945 0.071-1.275 0.056-2.151 0.262-2.91 0.558-0.792 0.309-1.462 0.717-2.127 1.387-0.67 0.666-1.078 1.336-1.387 2.123-0.295 0.764-0.502 1.636-0.558 2.91-0.056 1.285-0.071 1.692-0.071 4.949s0.014 3.665 0.071 4.945c0.056 1.275 0.262 2.151 0.558 2.91 0.31 0.792 0.717 1.462 1.387 2.127 0.665 0.665 1.336 1.078 2.123 1.383 0.764 0.295 1.636 0.502 2.91 0.558 1.279 0.056 1.687 0.071 4.945 0.071s3.665-0.014 4.945-0.071c1.275-0.056 2.151-0.262 2.91-0.558 0.787-0.305 1.458-0.717 2.123-1.383s1.078-1.336 1.383-2.123c0.295-0.764 0.502-1.635 0.558-2.91 0.056-1.279 0.070-1.687 0.070-4.945s-0.014-3.665-0.070-4.945c-0.056-1.275-0.263-2.151-0.558-2.91-0.295-0.797-0.703-1.467-1.373-2.133-0.665-0.665-1.336-1.078-2.123-1.383-0.764-0.295-1.636-0.502-2.91-0.558-1.284-0.061-1.692-0.075-4.949-0.075l-0.001 0.001z"></path>
<path d="M16.007 10.163c-3.402 0-6.163 2.76-6.163 6.163s2.76 6.163 6.163 6.163c3.403 0 6.163-2.76 6.163-6.163s-2.76-6.163-6.163-6.163zM16.007 20.324c-2.208 0-3.998-1.79-3.998-3.998s1.79-3.998 3.998-3.998c2.208 0 3.998 1.79 3.998 3.998s-1.79 3.998-3.998 3.998z"></path>
<path d="M23.851 9.919c0 0.795-0.644 1.439-1.439 1.439s-1.439-0.644-1.439-1.439 0.644-1.439 1.439-1.439c0.795 0 1.439 0.644 1.439 1.439z"></path>
</symbol>
<symbol id="icon-keyboard-arrow-down" viewBox="0 0 32 32">
<path d="M16 20.269c-0.149 0-0.29-0.027-0.422-0.083s-0.259-0.143-0.381-0.265l-6.592-6.592c-0.227-0.227-0.334-0.497-0.323-0.812s0.13-0.586 0.357-0.812c0.227-0.227 0.497-0.34 0.812-0.34s0.586 0.113 0.812 0.34l5.738 5.771 5.771-5.771c0.227-0.227 0.492-0.334 0.796-0.323s0.569 0.13 0.796 0.357c0.227 0.227 0.34 0.497 0.34 0.812s-0.113 0.586-0.34 0.812l-6.559 6.559c-0.122 0.122-0.249 0.21-0.381 0.265s-0.273 0.083-0.422 0.083z"></path>
<path d="M9.449 11.365c0.315 0 0.586 0.113 0.813 0.34l5.738 5.771 5.771-5.771c0.227-0.227 0.492-0.334 0.796-0.323s0.569 0.13 0.796 0.357c0.227 0.227 0.34 0.498 0.34 0.813l-0.005 0.116c-0.025 0.266-0.137 0.497-0.335 0.695l-6.559 6.56-0.092 0.085c-0.093 0.079-0.19 0.138-0.289 0.18-0.132 0.055-0.273 0.083-0.422 0.083l-0.111-0.005c-0.109-0.010-0.213-0.037-0.313-0.078s-0.196-0.101-0.289-0.18l-0.091-0.085-6.592-6.592c-0.227-0.227-0.334-0.498-0.323-0.813s0.13-0.586 0.357-0.813c0.226-0.226 0.497-0.34 0.811-0.34z"></path>
</symbol>
<symbol id="icon-keyboard-arrow-up" viewBox="0 0 32 32">
<path d="M16 13.725l-5.771 5.771c-0.227 0.227-0.492 0.334-0.796 0.323s-0.569-0.13-0.796-0.357c-0.227-0.227-0.34-0.497-0.34-0.812s0.113-0.586 0.34-0.812l6.559-6.559c0.227-0.227 0.495-0.34 0.804-0.34s0.577 0.113 0.804 0.34l6.592 6.592c0.227 0.227 0.34 0.492 0.34 0.796s-0.113 0.569-0.34 0.796-0.497 0.34-0.812 0.34c-0.315 0-0.586-0.113-0.812-0.34l-5.771-5.738z"></path>
<path d="M23.73 18.779c-0.025 0.257-0.136 0.485-0.335 0.684l-0.087 0.079c-0.208 0.173-0.45 0.261-0.725 0.261-0.315-0-0.585-0.114-0.811-0.34l-5.772-5.738-5.771 5.772-0.086 0.079c-0.207 0.172-0.444 0.253-0.71 0.244l-0.112-0.009c-0.221-0.029-0.419-0.118-0.596-0.268l-0.087-0.079c-0.227-0.227-0.34-0.498-0.34-0.813s0.113-0.586 0.34-0.813l6.559-6.559c0.227-0.227 0.494-0.34 0.803-0.34s0.578 0.113 0.805 0.34l6.591 6.592c0.227 0.227 0.34 0.492 0.34 0.796l-0.005 0.112z"></path>
</symbol>
<symbol id="icon-logout" viewBox="0 0 32 32">
<path d="M6.072 28.199c-0.613 0-1.145-0.225-1.595-0.676s-0.676-0.982-0.676-1.595v-19.857c0-0.616 0.225-1.149 0.676-1.601s0.982-0.678 1.595-0.678h8.807c0.321 0 0.59 0.111 0.808 0.334s0.327 0.495 0.327 0.816c0 0.322-0.109 0.59-0.327 0.806s-0.487 0.323-0.808 0.323h-8.807v19.857h8.807c0.321 0 0.59 0.11 0.808 0.329s0.327 0.49 0.327 0.812c0 0.322-0.109 0.591-0.327 0.806s-0.487 0.323-0.808 0.323h-8.807zM23.856 17.136h-10.768c-0.32 0-0.59-0.11-0.808-0.329s-0.327-0.49-0.327-0.812c0-0.322 0.109-0.591 0.327-0.806s0.488-0.323 0.808-0.323h10.701l-2.564-2.564c-0.227-0.228-0.334-0.495-0.323-0.8s0.13-0.571 0.357-0.795c0.226-0.229 0.496-0.342 0.81-0.34s0.585 0.117 0.815 0.344l4.529 4.529c0.221 0.228 0.332 0.494 0.332 0.797s-0.111 0.568-0.332 0.794l-4.496 4.496c-0.222 0.226-0.486 0.335-0.792 0.327s-0.577-0.126-0.812-0.352c-0.218-0.227-0.328-0.497-0.331-0.811s0.112-0.586 0.344-0.813l2.531-2.539z"></path>
</symbol>
<symbol id="icon-map-search" viewBox="0 0 32 32">
<path d="M5.738 27.458c-0.447 0.226-0.882 0.209-1.304-0.053s-0.634-0.652-0.634-1.171v-18.6c0-0.331 0.095-0.627 0.286-0.886s0.44-0.45 0.75-0.572l6.043-2.125c0.249-0.094 0.5-0.136 0.754-0.125s0.505 0.053 0.754 0.125l8.012 2.809 5.862-2.351c0.447-0.204 0.883-0.181 1.308 0.070s0.638 0.636 0.638 1.155v11.377c0 0.332-0.109 0.599-0.327 0.804s-0.49 0.307-0.816 0.307c-0.326 0-0.597-0.108-0.812-0.323s-0.323-0.489-0.323-0.82v-10.106l-4.662 1.776v5.614c0 0.289-0.094 0.528-0.283 0.717s-0.428 0.283-0.717 0.283c-0.289 0-0.528-0.094-0.717-0.283s-0.283-0.428-0.283-0.717v-5.614l-6.533-2.2v16.959c0 0.354-0.095 0.676-0.286 0.966s-0.449 0.499-0.775 0.626l-5.934 2.362zM6.072 24.988l4.662-1.776v-16.666l-4.662 1.543v16.899zM21.936 24.846c0.807 0 1.488-0.281 2.042-0.843s0.828-1.233 0.823-2.014c-0.005-0.807-0.282-1.486-0.831-2.038s-1.227-0.827-2.034-0.827c-0.807 0-1.485 0.276-2.034 0.827s-0.823 1.231-0.823 2.038c0 0.807 0.274 1.485 0.823 2.034s1.227 0.823 2.034 0.823zM21.936 27.125c-1.415 0-2.625-0.502-3.629-1.507s-1.507-2.214-1.507-3.629c0-1.437 0.502-2.654 1.507-3.65s2.214-1.494 3.629-1.494c1.437 0 2.654 0.498 3.649 1.494s1.494 2.213 1.494 3.65c0 0.501-0.068 0.978-0.205 1.431s-0.333 0.877-0.589 1.272l2.645 2.654c0.205 0.204 0.308 0.447 0.311 0.729s-0.101 0.525-0.311 0.729c-0.199 0.204-0.439 0.306-0.721 0.306s-0.527-0.102-0.737-0.306l-2.638-2.596c-0.422 0.306-0.872 0.535-1.35 0.688s-0.994 0.229-1.55 0.229z"></path>
</symbol>
<symbol id="icon-menu" viewBox="0 0 32 32">
<path d="M4.936 24.295c-0.321 0-0.59-0.11-0.808-0.329s-0.327-0.493-0.327-0.82c0-0.322 0.109-0.591 0.327-0.807s0.488-0.323 0.808-0.323h22.127c0.321 0 0.591 0.11 0.812 0.329s0.331 0.49 0.331 0.812c0 0.328-0.11 0.599-0.331 0.814s-0.492 0.323-0.812 0.323h-22.127zM4.936 17.136c-0.321 0-0.59-0.11-0.808-0.329s-0.327-0.49-0.327-0.812c0-0.322 0.109-0.591 0.327-0.806s0.488-0.323 0.808-0.323h22.127c0.321 0 0.591 0.11 0.812 0.329s0.331 0.49 0.331 0.812c0 0.322-0.11 0.591-0.331 0.806s-0.492 0.323-0.812 0.323h-22.127zM4.936 9.984c-0.321 0-0.59-0.11-0.808-0.329s-0.327-0.493-0.327-0.82c0-0.322 0.109-0.591 0.327-0.806s0.488-0.323 0.808-0.323h22.127c0.321 0 0.591 0.11 0.812 0.329s0.331 0.49 0.331 0.812c0 0.328-0.11 0.599-0.331 0.815s-0.492 0.323-0.812 0.323h-22.127z"></path>
</symbol>
<symbol id="icon-select-check-box" viewBox="0 0 32 32">
<path d="M6.072 28.199c-0.624 0-1.159-0.222-1.604-0.667s-0.667-0.98-0.667-1.604v-19.857c0-0.627 0.222-1.163 0.667-1.609s0.98-0.67 1.604-0.67h18.691c0.321 0 0.59 0.111 0.808 0.334s0.327 0.495 0.327 0.816c0 0.322-0.109 0.59-0.327 0.806s-0.487 0.323-0.808 0.323h-18.691v19.857h19.857v-11.090c0-0.321 0.11-0.59 0.329-0.808s0.49-0.327 0.812-0.327c0.322 0 0.592 0.109 0.81 0.327s0.328 0.487 0.328 0.808v11.090c0 0.624-0.223 1.159-0.67 1.604s-0.983 0.667-1.609 0.667h-19.857zM15.414 19.425l12.073-12.073c0.213-0.21 0.459-0.316 0.737-0.316s0.521 0.105 0.73 0.316c0.209 0.211 0.313 0.456 0.313 0.737s-0.103 0.52-0.308 0.719l-12.741 12.741c-0.23 0.226-0.499 0.34-0.806 0.34s-0.574-0.113-0.801-0.34l-5.865-5.865c-0.211-0.211-0.316-0.455-0.316-0.732s0.105-0.521 0.316-0.732 0.453-0.316 0.728-0.316c0.275 0 0.517 0.105 0.728 0.316l5.212 5.204z"></path>
</symbol>
<symbol id="icon-star-filled" viewBox="0 0 32 32">
<path d="M16.008 21.885l-5.639 4.296c-0.227 0.171-0.456 0.246-0.688 0.224s-0.447-0.097-0.646-0.224c-0.199-0.127-0.341-0.299-0.427-0.518s-0.093-0.463-0.021-0.734l2.152-7.007-5.531-3.979c-0.227-0.154-0.373-0.349-0.439-0.584s-0.061-0.457 0.017-0.667c0.077-0.204 0.203-0.388 0.377-0.551s0.405-0.245 0.692-0.245h6.858l2.193-7.307c0.072-0.276 0.215-0.483 0.427-0.622s0.435-0.207 0.667-0.207 0.454 0.069 0.667 0.207c0.213 0.138 0.358 0.345 0.435 0.622l2.185 7.307h6.866c0.282 0 0.509 0.082 0.684 0.245s0.3 0.347 0.377 0.551c0.077 0.21 0.083 0.432 0.017 0.667s-0.212 0.43-0.439 0.584l-5.531 3.979 2.152 6.999c0.072 0.276 0.065 0.522-0.021 0.738s-0.228 0.387-0.427 0.514c-0.199 0.132-0.413 0.209-0.643 0.232s-0.457-0.055-0.684-0.232l-5.631-4.289z"></path>
</symbol>
<symbol id="icon-star-half" viewBox="0 0 32 32">
<path d="M16 7.999v12.613l5.122 3.095-1.376-5.798 4.504-3.92-5.939-0.517-2.311-5.472zM16 23.257l-6.216 3.749c-0.21 0.127-0.428 0.184-0.654 0.17s-0.428-0.084-0.605-0.211c-0.177-0.127-0.308-0.291-0.394-0.493s-0.104-0.429-0.054-0.684l1.641-7.083-5.482-4.783c-0.199-0.171-0.321-0.365-0.365-0.58s-0.038-0.425 0.017-0.63c0.050-0.204 0.164-0.377 0.344-0.518s0.396-0.222 0.65-0.245l7.249-0.633 2.808-6.691c0.1-0.232 0.25-0.404 0.452-0.518s0.405-0.17 0.609-0.17c0.204 0 0.407 0.057 0.609 0.17s0.353 0.286 0.452 0.518l2.808 6.691 7.257 0.633c0.249 0.022 0.463 0.104 0.642 0.245s0.294 0.313 0.344 0.518c0.055 0.204 0.061 0.414 0.017 0.63s-0.165 0.409-0.365 0.58l-5.482 4.783 1.641 7.083c0.049 0.254 0.031 0.482-0.054 0.684s-0.217 0.366-0.394 0.493c-0.177 0.127-0.379 0.198-0.605 0.211s-0.445-0.043-0.654-0.17l-6.216-3.749z"></path>
</symbol>
<symbol id="icon-star-rate" viewBox="0 0 32 32">
<path d="M11.433 22.567l4.567-3.467 4.567 3.467-1.833-5.767 4.2-2.733h-5.033l-1.9-5.767-1.9 5.767h-5.033l4.2 2.733-1.833 5.767zM16.008 21.885l-5.639 4.296c-0.227 0.171-0.456 0.246-0.688 0.224s-0.447-0.097-0.646-0.224c-0.199-0.127-0.341-0.299-0.427-0.518s-0.093-0.463-0.021-0.734l2.152-7.007-5.531-3.979c-0.227-0.154-0.373-0.349-0.439-0.584s-0.061-0.457 0.017-0.667c0.077-0.204 0.203-0.388 0.377-0.551s0.405-0.245 0.692-0.245h6.858l2.193-7.307c0.072-0.276 0.215-0.483 0.427-0.622s0.435-0.207 0.667-0.207 0.454 0.069 0.667 0.207c0.213 0.138 0.358 0.345 0.435 0.622l2.185 7.307h6.866c0.282 0 0.509 0.082 0.684 0.245s0.3 0.347 0.377 0.551c0.077 0.21 0.083 0.432 0.017 0.667s-0.212 0.43-0.439 0.584l-5.531 3.979 2.152 6.999c0.072 0.276 0.065 0.522-0.021 0.738s-0.228 0.387-0.427 0.514c-0.199 0.132-0.413 0.209-0.643 0.232s-0.457-0.055-0.684-0.232l-5.631-4.289z"></path>
</symbol>
<symbol id="icon-X" viewBox="0 0 32 32">
<path d="M22.901 5.657h3.68l-8.040 9.037 9.459 12.297h-7.406l-5.801-7.458-6.637 7.458h-3.682l8.6-9.666-9.074-11.668h7.594l5.243 6.817 6.064-6.817zM21.61 24.824h2.039l-13.163-17.115h-2.188l13.312 17.115z"></path>
</symbol>
<symbol id="icon-youtube" viewBox="0 0 32 32">
<path d="M28.79 9.604c-0.152-0.563-0.449-1.077-0.861-1.49s-0.925-0.711-1.489-0.864c-2.088-0.573-10.441-0.583-10.441-0.583s-8.352-0.009-10.441 0.539c-0.563 0.16-1.075 0.462-1.487 0.878s-0.711 0.929-0.867 1.493c-0.551 2.088-0.556 6.419-0.556 6.419s-0.005 4.352 0.541 6.419c0.307 1.143 1.207 2.045 2.351 2.353 2.109 0.573 10.44 0.583 10.44 0.583s8.353 0.009 10.441-0.537c0.563-0.153 1.077-0.45 1.49-0.862s0.712-0.925 0.866-1.488c0.552-2.087 0.556-6.416 0.556-6.416s0.027-4.353-0.543-6.441zM13.328 20.007l0.007-8 6.943 4.007-6.949 3.993z"></path>
</symbol>
<symbol id="icon-logo-1" viewBox="0 0 134 32">
<path fill="#000" style="fill: var(--color1, #000)" d="M4.749 25.482c-0.37 0.187-0.73 0.173-1.079-0.044s-0.524-0.54-0.524-0.969v-15.393c0-0.274 0.079-0.519 0.237-0.734s0.364-0.372 0.62-0.473l5.001-1.759c0.206-0.078 0.414-0.112 0.624-0.103s0.418 0.044 0.624 0.103l6.631 2.325 4.851-1.945c0.37-0.169 0.731-0.15 1.082 0.058s0.528 0.526 0.528 0.956v9.415c0 0.274-0.090 0.496-0.271 0.665s-0.406 0.254-0.676 0.254c-0.27 0-0.494-0.089-0.672-0.268s-0.267-0.405-0.267-0.679v-8.364l-3.858 1.47v4.646c0 0.239-0.078 0.437-0.234 0.593s-0.354 0.234-0.593 0.234c-0.239 0-0.437-0.078-0.593-0.234s-0.234-0.354-0.234-0.593v-4.646l-5.407-1.821v14.035c0 0.293-0.079 0.559-0.237 0.799s-0.371 0.413-0.641 0.518l-4.911 1.954zM5.025 23.439l3.858-1.47v-13.793l-3.858 1.277v13.986zM18.154 23.321c0.668 0 1.231-0.233 1.69-0.697s0.685-1.021 0.681-1.667c-0.004-0.668-0.234-1.23-0.687-1.686s-1.015-0.684-1.683-0.684c-0.668 0-1.229 0.228-1.683 0.684s-0.681 1.018-0.681 1.686c0 0.668 0.227 1.229 0.681 1.683s1.015 0.681 1.683 0.681zM18.154 25.207c-1.171 0-2.172-0.416-3.003-1.247s-1.247-1.832-1.247-3.003c0-1.189 0.416-2.196 1.247-3.020s1.832-1.236 3.003-1.236c1.189 0 2.196 0.412 3.020 1.236s1.236 1.831 1.236 3.020c0 0.414-0.056 0.809-0.169 1.184s-0.275 0.726-0.487 1.053l2.189 2.196c0.169 0.169 0.255 0.37 0.257 0.603s-0.083 0.434-0.257 0.603c-0.165 0.169-0.363 0.253-0.597 0.253s-0.436-0.085-0.61-0.253l-2.183-2.149c-0.349 0.253-0.722 0.443-1.117 0.569s-0.823 0.19-1.283 0.19z"></path>
<path fill="#1b391b" style="fill: var(--color2, #1b391b)" d="M32.215 22.069v-13.86h5.405c1.214 0 2.251 0.191 3.109 0.574s1.518 0.937 1.98 1.663c0.462 0.726 0.693 1.591 0.693 2.594s-0.231 1.868-0.693 2.594c-0.462 0.713-1.122 1.261-1.98 1.643s-1.894 0.574-3.109 0.574h-4.316l0.891-0.911v5.128h-1.98zM41.482 22.069l-3.524-5.029h2.119l3.564 5.029h-2.158zM34.195 17.139l-0.891-0.97h4.257c1.267 0 2.224-0.271 2.871-0.812 0.66-0.554 0.99-1.327 0.99-2.317s-0.33-1.756-0.99-2.297c-0.647-0.541-1.604-0.812-2.871-0.812h-4.257l0.891-0.99v8.197zM50.799 22.188c-1.122 0-2.112-0.231-2.97-0.693-0.845-0.462-1.505-1.096-1.98-1.901-0.462-0.805-0.693-1.729-0.693-2.772s0.224-1.967 0.673-2.772c0.462-0.805 1.089-1.432 1.881-1.881 0.805-0.462 1.709-0.693 2.713-0.693 1.016 0 1.914 0.224 2.693 0.673s1.386 1.082 1.822 1.901c0.449 0.805 0.673 1.749 0.673 2.831 0 0.079-0.007 0.172-0.020 0.277 0 0.106-0.007 0.205-0.020 0.297h-8.93v-1.366h7.94l-0.772 0.475c0.013-0.673-0.125-1.274-0.416-1.802s-0.693-0.937-1.208-1.228c-0.502-0.304-1.089-0.455-1.762-0.455-0.66 0-1.247 0.152-1.762 0.455-0.515 0.29-0.917 0.706-1.208 1.247-0.29 0.528-0.436 1.135-0.436 1.822v0.317c0 0.7 0.158 1.327 0.475 1.881 0.33 0.541 0.785 0.964 1.366 1.267s1.247 0.455 2 0.455c0.62 0 1.181-0.106 1.683-0.317 0.515-0.211 0.964-0.528 1.346-0.95l1.049 1.228c-0.475 0.554-1.069 0.977-1.782 1.267-0.7 0.29-1.485 0.436-2.356 0.436zM58.052 22.069v-14.692h1.901v14.692h-1.901zM69.898 22.069v-2.218l-0.099-0.416v-3.782c0-0.805-0.238-1.426-0.713-1.861-0.462-0.449-1.162-0.673-2.099-0.673-0.62 0-1.228 0.106-1.822 0.317-0.594 0.198-1.096 0.469-1.505 0.812l-0.792-1.426c0.541-0.436 1.188-0.766 1.94-0.99 0.766-0.238 1.564-0.356 2.396-0.356 1.439 0 2.548 0.35 3.326 1.049s1.168 1.769 1.168 3.208v6.336h-1.802zM66.453 22.188c-0.779 0-1.465-0.132-2.059-0.396-0.581-0.264-1.030-0.627-1.346-1.089-0.317-0.475-0.475-1.010-0.475-1.604 0-0.568 0.132-1.082 0.396-1.544 0.277-0.462 0.719-0.832 1.327-1.109 0.62-0.277 1.452-0.416 2.495-0.416h3.326v1.366h-3.247c-0.95 0-1.591 0.158-1.921 0.475s-0.495 0.7-0.495 1.148c0 0.515 0.205 0.931 0.614 1.247 0.409 0.304 0.977 0.455 1.703 0.455 0.713 0 1.333-0.158 1.861-0.475 0.541-0.317 0.931-0.779 1.168-1.386l0.376 1.307c-0.251 0.62-0.693 1.115-1.327 1.485-0.634 0.356-1.432 0.535-2.396 0.535zM73.495 22.069l4.515-5.861-0.020 0.97-4.297-5.603h2.119l3.287 4.316h-0.812l3.287-4.316h2.079l-4.356 5.643 0.020-1.010 4.554 5.861h-2.158l-3.465-4.594 0.772 0.119-3.406 4.475h-2.119zM91.143 22.069v-13.86h1.624l6.217 10.474h-0.871l6.138-10.474h1.624l0.020 13.86h-1.901l-0.020-10.87h0.455l-5.465 9.187h-0.911l-5.504-9.187h0.495v10.87h-1.901zM116.093 22.069v-2.218l-0.098-0.416v-3.782c0-0.805-0.238-1.426-0.713-1.861-0.462-0.449-1.162-0.673-2.099-0.673-0.621 0-1.228 0.106-1.822 0.317-0.594 0.198-1.096 0.469-1.505 0.812l-0.792-1.426c0.541-0.436 1.188-0.766 1.941-0.99 0.766-0.238 1.564-0.356 2.396-0.356 1.439 0 2.548 0.35 3.327 1.049 0.778 0.7 1.167 1.769 1.167 3.208v6.336h-1.802zM112.648 22.188c-0.779 0-1.465-0.132-2.059-0.396-0.581-0.264-1.030-0.627-1.346-1.089-0.317-0.475-0.475-1.010-0.475-1.604 0-0.568 0.132-1.082 0.396-1.544 0.277-0.462 0.719-0.832 1.326-1.109 0.621-0.277 1.452-0.416 2.495-0.416h3.327v1.366h-3.247c-0.95 0-1.59 0.158-1.921 0.475-0.33 0.317-0.494 0.7-0.494 1.148 0 0.515 0.204 0.931 0.614 1.247 0.409 0.304 0.977 0.455 1.703 0.455 0.713 0 1.334-0.158 1.862-0.475 0.542-0.317 0.93-0.779 1.169-1.386l0.376 1.307c-0.252 0.62-0.693 1.115-1.327 1.485-0.633 0.356-1.432 0.535-2.396 0.535zM126.778 22.188c-0.872 0-1.67-0.198-2.396-0.594-0.713-0.409-1.288-1.010-1.722-1.802-0.423-0.792-0.634-1.782-0.634-2.97s0.205-2.178 0.615-2.97c0.423-0.792 0.99-1.386 1.703-1.782 0.726-0.396 1.538-0.594 2.435-0.594 1.030 0 1.941 0.224 2.732 0.673 0.792 0.449 1.419 1.076 1.881 1.881 0.462 0.792 0.693 1.723 0.693 2.792s-0.231 2.006-0.693 2.812-1.089 1.432-1.881 1.881c-0.791 0.449-1.703 0.673-2.732 0.673zM121.215 25.91v-14.335h1.822v2.831l-0.119 2.435 0.198 2.435v6.633h-1.9zM126.62 20.525c0.674 0 1.274-0.152 1.802-0.455 0.542-0.304 0.964-0.733 1.268-1.287 0.317-0.568 0.474-1.221 0.474-1.96 0-0.752-0.158-1.399-0.474-1.941-0.303-0.554-0.726-0.983-1.268-1.287-0.527-0.304-1.128-0.455-1.802-0.455-0.66 0-1.26 0.152-1.801 0.455-0.529 0.304-0.951 0.733-1.268 1.287-0.303 0.541-0.456 1.188-0.456 1.941 0 0.739 0.152 1.393 0.456 1.96 0.317 0.554 0.739 0.983 1.268 1.287 0.541 0.304 1.141 0.455 1.801 0.455z"></path>
</symbol>
<symbol id="icon-logo" viewBox="0 0 133 32">
<path fill="#000" style="fill: var(--color1, #000)" d="M4.708 25.265c-0.367 0.186-0.723 0.171-1.070-0.044s-0.52-0.535-0.52-0.961v-15.262c0-0.272 0.078-0.514 0.235-0.727s0.361-0.369 0.615-0.469l4.958-1.744c0.204-0.077 0.411-0.111 0.619-0.102s0.415 0.043 0.619 0.102l6.574 2.305 4.81-1.929c0.367-0.168 0.724-0.148 1.073 0.057s0.523 0.522 0.523 0.947v9.335c0 0.272-0.090 0.492-0.269 0.659s-0.402 0.252-0.67 0.252c-0.267 0-0.49-0.088-0.667-0.265s-0.265-0.401-0.265-0.673v-8.292l-3.825 1.457v4.606c0 0.237-0.078 0.433-0.233 0.588s-0.351 0.232-0.588 0.232-0.433-0.077-0.588-0.232c-0.155-0.155-0.232-0.351-0.232-0.588v-4.606l-5.361-1.805v13.915c0 0.29-0.078 0.554-0.235 0.792s-0.368 0.409-0.636 0.513l-4.869 1.938zM4.982 23.238l3.825-1.457v-13.675l-3.825 1.266v13.866zM17.999 23.121c0.662 0 1.221-0.23 1.675-0.691s0.679-1.012 0.675-1.652c-0.004-0.662-0.232-1.22-0.682-1.672s-1.006-0.678-1.669-0.678c-0.662 0-1.219 0.226-1.669 0.678s-0.675 1.010-0.675 1.672c0 0.662 0.225 1.219 0.675 1.669s1.006 0.675 1.669 0.675zM17.999 24.991c-1.161 0-2.154-0.412-2.978-1.236s-1.236-1.817-1.236-2.978c0-1.179 0.412-2.177 1.236-2.995s1.817-1.226 2.978-1.226c1.179 0 2.177 0.409 2.994 1.226s1.226 1.815 1.226 2.995c0 0.411-0.056 0.802-0.168 1.174s-0.273 0.72-0.483 1.044l2.171 2.177c0.168 0.168 0.253 0.367 0.255 0.598s-0.083 0.43-0.255 0.598c-0.163 0.168-0.36 0.251-0.592 0.251s-0.433-0.084-0.604-0.251l-2.164-2.13c-0.346 0.251-0.716 0.439-1.108 0.564s-0.816 0.188-1.272 0.188z"></path>
<path fill="#4c2613" style="fill: var(--color3, #4c2613)" d="M43.267 22.701h-2.14l-2.964-4.221c-0.275 0.020-0.569 0.039-0.864 0.039h-3.396v4.181h-1.963v-13.742h5.359c3.573 0 5.732 1.806 5.732 4.79 0 2.12-1.099 3.651-3.023 4.338l3.259 4.613zM37.24 16.851c2.513 0 3.828-1.139 3.828-3.102s-1.315-3.082-3.828-3.082h-3.337v6.184h3.337zM55.135 17.558c0 0.157-0.020 0.393-0.039 0.569h-8.441c0.236 1.826 1.708 3.043 3.769 3.043 1.217 0 2.238-0.412 3.004-1.256l1.040 1.217c-0.942 1.099-2.375 1.688-4.103 1.688-3.357 0-5.595-2.218-5.595-5.32 0-3.082 2.218-5.3 5.222-5.3s5.143 2.159 5.143 5.359zM49.992 13.788c-1.806 0-3.141 1.217-3.337 2.984h6.675c-0.196-1.747-1.512-2.984-3.337-2.984zM57.556 22.701v-14.566h1.885v14.566h-1.885zM66.631 12.198c2.846 0 4.456 1.374 4.456 4.221v6.282h-1.786v-1.374c-0.628 0.942-1.786 1.492-3.416 1.492-2.356 0-3.848-1.256-3.848-3.062 0-1.669 1.080-3.043 4.181-3.043h2.984v-0.373c0-1.59-0.923-2.513-2.788-2.513-1.237 0-2.493 0.432-3.298 1.119l-0.785-1.413c1.080-0.864 2.631-1.335 4.299-1.335zM66.199 21.366c1.413 0 2.532-0.648 3.004-1.845v-1.453h-2.905c-1.865 0-2.395 0.726-2.395 1.61 0 1.040 0.864 1.688 2.297 1.688zM83.153 22.701h-2.139l-3.004-3.985-3.043 3.985h-2.1l4.103-5.32-3.907-5.084h2.1l2.866 3.749 2.847-3.749h2.061l-3.926 5.084 4.142 5.32zM104.99 22.701h-1.885l-0.020-10.012-4.967 8.343h-0.903l-4.967-8.284v9.953h-1.885v-13.742h1.61l5.732 9.658 5.654-9.658h1.61l0.020 13.742zM112.431 12.198c2.846 0 4.456 1.374 4.456 4.221v6.282h-1.786v-1.374c-0.628 0.942-1.786 1.492-3.416 1.492-2.356 0-3.847-1.256-3.847-3.062 0-1.669 1.080-3.043 4.181-3.043h2.984v-0.373c0-1.59-0.923-2.513-2.788-2.513-1.237 0-2.493 0.432-3.298 1.119l-0.785-1.413c1.080-0.864 2.631-1.335 4.299-1.335zM111.999 21.366c1.414 0 2.532-0.648 3.004-1.845v-1.453h-2.905c-1.865 0-2.395 0.726-2.395 1.61 0 1.040 0.863 1.688 2.297 1.688zM125.695 12.198c3.042 0 5.261 2.12 5.261 5.3 0 3.2-2.219 5.32-5.261 5.32-1.473 0-2.768-0.569-3.632-1.688v5.379h-1.884v-14.213h1.806v1.649c0.844-1.158 2.178-1.747 3.71-1.747zM125.538 21.17c2.003 0 3.514-1.453 3.514-3.671 0-2.199-1.511-3.651-3.514-3.651-1.982 0-3.495 1.453-3.495 3.651 0 2.218 1.512 3.671 3.495 3.671z"></path>
</symbol>
<svg xmlns="http://www.w3.org/2000/svg">
  <symbol id="icon-spinner" viewBox="0 0 24 24">
    <path opacity="0.2" d="M12 2a10 10 0 1 0 10 10A10 10 0 0 0 12 2Zm0 18a8 8 0 1 1 8-8 8 8 0 0 1-8 8Z" fill="currentColor"/>
    <path d="M12 2a10 10 0 0 1 10 10h-2a8 8 0 0 0-8-8Z" fill="currentColor"/>
  </symbol>
</svg>

</defs>
</svg>
