<svg width="24" height="24" viewBox="0 0 24 24" fill="none" xmlns="http://www.w3.org/2000/svg">
<path d="M5.22334 19.7267C4.477 18.9607 3.89492 18.0753 3.47709 17.0705C3.05942 16.0658 2.85059 15.0383 2.85059 13.988C2.85059 12.7595 3.06709 11.6321 3.50009 10.6057C3.93309 9.57941 4.57859 8.63724 5.43659 7.77924C6.50975 6.71007 8.03959 5.94099 10.0261 5.47199C12.0128 5.00299 14.4503 4.80216 17.3386 4.86949C17.7118 4.88616 18.0517 4.96182 18.3583 5.09649C18.6648 5.23099 18.9423 5.41857 19.1908 5.65924C19.4342 5.90307 19.6271 6.17841 19.7696 6.48524C19.9119 6.79207 19.9906 7.13416 20.0056 7.51149C20.0516 8.95566 20.0329 10.2896 19.9496 11.5132C19.8663 12.7371 19.7038 13.851 19.4621 14.855C19.2204 15.8588 18.9045 16.7522 18.5143 17.535C18.1242 18.3177 17.6533 18.9855 17.1018 19.5385C16.252 20.3923 15.3267 21.04 14.3258 21.4815C13.325 21.9228 12.2571 22.1435 11.1221 22.1435C9.94942 22.1435 8.876 21.9487 7.90184 21.559C6.9275 21.1693 6.03467 20.5586 5.22334 19.7267ZM7.93009 19.5712C8.34942 19.8546 8.83342 20.0692 9.38209 20.2152C9.93075 20.3612 10.5097 20.4342 11.1188 20.4342C11.9948 20.4342 12.8453 20.2519 13.6701 19.8872C14.4948 19.5226 15.2428 18.9962 15.9143 18.3082C16.3922 17.8262 16.7904 17.2008 17.1091 16.432C17.4278 15.6632 17.6811 14.776 17.8691 13.7705C18.0571 12.7648 18.1785 11.6559 18.2333 10.4437C18.288 9.23157 18.284 7.94324 18.2213 6.57874C16.6667 6.54141 15.2724 6.56124 14.0386 6.63824C12.8049 6.71524 11.7161 6.85374 10.7721 7.05374C9.82809 7.25374 9.01842 7.50891 8.34309 7.81924C7.66775 8.12957 7.11934 8.50374 6.69784 8.94174C6.00984 9.64257 5.4805 10.3917 5.10984 11.189C4.73917 11.9863 4.55384 12.7942 4.55384 13.6125C4.55384 14.3953 4.71967 15.2207 5.05134 16.0885C5.38317 16.9563 5.79967 17.6549 6.30084 18.1842C7.159 16.5747 8.19875 15.128 9.42009 13.844C10.6416 12.56 11.9599 11.533 13.3751 10.763C11.9411 12.017 10.7761 13.3712 9.88009 14.8255C8.98392 16.2798 8.33392 17.8617 7.93009 19.5712Z" fill="#4C2613"/>
</svg>
